<?xml version="1.0" standalone="no"?>
<!DOCTYPE svg PUBLIC "-//W3C//DTD SVG 20010904//EN"
 "http://www.w3.org/TR/2001/REC-SVG-20010904/DTD/svg10.dtd">
<svg version="1.0" xmlns="http://www.w3.org/2000/svg"
 width="72.000000pt" height="72.000000pt" viewBox="0 0 72.000000 72.000000"
 preserveAspectRatio="xMidYMid meet">

<g transform="translate(0.000000,72.000000) scale(0.100000,-0.100000)"
fill="#000000" stroke="none">
<path d="M87 633 c-4 -3 -7 -127 -7 -275 l0 -268 26 -10 c33 -13 475 -13 509
0 l25 10 -2 272 -3 273 -271 3 c-149 1 -273 -1 -277 -5z m293 -192 c0 -26 6
-53 13 -60 10 -10 9 -14 -5 -22 -10 -6 -23 -30 -29 -55 -10 -37 -14 -42 -26
-33 -9 8 -12 22 -8 39 5 24 3 28 -22 32 -51 7 -61 -1 -80 -59 -24 -70 -49 -86
-40 -25 4 22 10 47 13 55 3 10 -2 18 -17 22 l-23 8 26 13 c18 9 29 27 37 58
11 44 42 88 48 69 2 -6 -1 -30 -6 -54 -5 -24 -9 -44 -8 -45 9 -6 79 11 82 20
1 6 8 30 14 54 15 54 31 45 31 -17z m172 23 c9 -20 9 -30 0 -45 -16 -24 -15
-29 3 -29 20 0 19 -29 -4 -65 -18 -30 -71 -62 -139 -83 l-33 -11 7 32 c13 62
63 210 73 216 5 3 26 7 45 9 31 2 38 -2 48 -24z"/>
<path d="M487 453 c-11 -10 -8 -53 2 -53 11 0 41 39 41 52 0 10 -34 11 -43 1z"/>
<path d="M474 370 c-12 -5 -24 -20 -28 -33 -3 -14 -9 -32 -12 -41 -11 -28 32
-19 70 15 35 30 35 30 15 50 -10 10 -20 19 -21 18 -2 0 -13 -4 -24 -9z"/>
</g>
</svg>
